<?xml version="1.0" encoding="utf-8"?>
<!-- Generator: Adobe Illustrator 28.3.0, SVG Export Plug-In . SVG Version: 6.00 Build 0)  -->
<svg version="1.1" id="logo-88" xmlns="http://www.w3.org/2000/svg" xmlns:xlink="http://www.w3.org/1999/xlink" x="0px" y="0px"
	 viewBox="0 0 40 41" style="enable-background:new 0 0 40 41;" xml:space="preserve">
<style type="text/css">
	.st0{fill-rule:evenodd;clip-rule:evenodd;fill:#FFFFFF;}
</style>
<path class="st0" d="M13.7,0.5c-2.3,0-4.4,0.9-6,2.5L0,10.7v3.5c0,2.5,1.1,4.7,2.8,6.3C1.1,22.1,0,24.3,0,26.8v3.5L7.7,38
	c1.6,1.6,3.8,2.5,6,2.5c2.5,0,4.7-1.1,6.3-2.8c1.6,1.7,3.8,2.8,6.3,2.8c2.3,0,4.4-0.9,6-2.5l7.7-7.7v-3.5c0-2.5-1.1-4.7-2.8-6.3
	c1.7-1.6,2.8-3.8,2.8-6.3v-3.5L32.3,3c-1.6-1.6-3.8-2.5-6-2.5c-2.5,0-4.7,1.1-6.3,2.8C18.4,1.6,16.2,0.5,13.7,0.5z M25.8,20.5
	c-0.1-0.1-0.2-0.2-0.3-0.3L20,14.8l-5.5,5.5c-0.1,0.1-0.2,0.2-0.3,0.3c0.1,0.1,0.2,0.2,0.3,0.3l5.5,5.5l5.5-5.5
	C25.6,20.7,25.7,20.6,25.8,20.5z M22.2,30.3V32c0,2.2,1.8,4.1,4.1,4.1c1.1,0,2.1-0.4,2.9-1.2l6.4-6.4v-1.7c0-2.2-1.8-4.1-4.1-4.1
	c-1.1,0-2.1,0.4-2.9,1.2L22.2,30.3z M17.8,30.3l-6.4-6.4c-0.8-0.8-1.8-1.2-2.9-1.2c-2.2,0-4.1,1.8-4.1,4.1v1.7l6.4,6.4
	c0.8,0.8,1.8,1.2,2.9,1.2c2.2,0,4.1-1.8,4.1-4.1V30.3z M17.8,9v1.7l-6.4,6.4c-0.8,0.8-1.8,1.2-2.9,1.2c-2.2,0-4.1-1.8-4.1-4.1v-1.7
	l6.4-6.4C11.6,5.4,12.6,5,13.7,5C16,5,17.8,6.8,17.8,9z M28.6,17.1l-6.4-6.4V9C22.2,6.8,24,5,26.3,5c1.1,0,2.1,0.4,2.9,1.2l6.4,6.4
	v1.7c0,2.2-1.8,4.1-4.1,4.1C30.4,18.3,29.4,17.9,28.6,17.1z"/>
</svg>
